<svg xmlns="http://www.w3.org/2000/svg" version="1.1" xmlns:xlink="http://www.w3.org/1999/xlink" xmlns:svgjs="http://svgjs.dev/svgjs" width="2000" height="1500" viewBox="0 0 2000 1500"><rect width="2000" height="1500" fill="#090a0a"></rect><g transform="matrix(0.75,0,0,0.75,249.090909090909,282.7536437246963)"><svg viewBox="0 0 396 247" data-background-color="#090a0a" preserveAspectRatio="xMidYMid meet" height="1247" width="2000" xmlns="http://www.w3.org/2000/svg" xmlns:xlink="http://www.w3.org/1999/xlink"><g id="tight-bounds" transform="matrix(1,0,0,1,0.2400000000000091,-0.09999999999999432)"><svg viewBox="0 0 395.52 247.2" height="247.2" width="395.52"><g><svg></svg></g><g><svg viewBox="0 0 395.52 247.2" height="247.2" width="395.52"><g><path d="M55.039 247.2l26.616-46.1v0.368h232.21v-0.368l26.616 46.1zM197.76 0l26.403 45.732-52.806 0z" fill="#77d4fc" fill-rule="nonzero" stroke="none" stroke-width="1" stroke-linecap="butt" stroke-linejoin="miter" stroke-miterlimit="10" stroke-dasharray="" stroke-dashoffset="0" font-family="none" font-weight="none" font-size="none" text-anchor="none" style="mix-blend-mode: normal" data-fill-palette-color="tertiary"></path></g><g transform="matrix(1,0,0,1,103.90268268376687,67.97999999999999)"><svg viewBox="0 0 187.71463463246624 111.24" height="111.24" width="187.71463463246624"><g><svg viewBox="0 0 397.4975999999999 235.55772894625613" height="111.24" width="187.71463463246624"><g><rect width="397.4975999999999" height="7.214822121368521" x="0" y="129.45217259052316" fill="#77d4fc" opacity="1" stroke-width="0" stroke="transparent" fill-opacity="1" class="rect-r$-0" data-fill-palette-color="primary" rx="1%" id="r$-0" data-palette-color="#77d4fc"></rect></g><g transform="matrix(1,0,0,1,0.9887999999999693,155.55396361599776)"><svg viewBox="0 0 395.52 80.00376533025837" height="80.00376533025837" width="395.52"><g id="textblocktransform"><svg viewBox="0 0 395.52 80.00376533025837" height="80.00376533025837" width="395.52" id="textblock"><g><svg viewBox="0 0 395.52 80.00376533025837" height="80.00376533025837" width="395.52"><g transform="matrix(1,0,0,1,0,0)"><svg width="395.52" viewBox="-0.45 -29.030595703124998 165.23999999999998 33.43059570312499" height="80.00376533025837" data-palette-color="#77d4fc"><g class="wordmark-text-0" data-fill-palette-color="primary" id="text-0"><path d="M10.6-4.05L10.6-4.05Q6.1 4.4 2.1 4.4L2.1 4.4Q-0.45 4.4-0.45 1.8L-0.45 1.8Q-0.45 0.25 0.75-1.65L0.75-1.65Q2.8-4.85 7.13-9.53 11.45-14.2 14.45-16.95L14.45-16.95 16.35-23.4Q13.85-21.05 9.85-20.65L9.85-20.65Q9.35-20.6 9.33-20.95 9.3-21.3 9.75-21.4L9.75-21.4 9.95-21.45Q12.1-21.65 14.38-23.7 16.65-25.75 17.8-28.4L17.8-28.4Q18-29.05 19.55-29.03 21.1-29 21.05-28.4L21.05-28.4 17.6-19.85Q24.4-25.6 27.35-25.75L27.35-25.75Q27.7-25.75 28.05-25.75L28.05-25.75Q32-25.75 33.5-23.15L33.5-23.15Q34.8-20.95 34.8-18L34.8-18Q34.8-13.6 32.1-5.4L32.1-5.4Q31.65-3.95 31.73-3.93 31.8-3.9 32-4.23 32.2-4.55 32.63-5.2 33.05-5.85 34.65-8.5L34.65-8.5Q40.4-18.15 46.35-24.6L46.35-24.6Q48.3-26.65 50.25-26.65L50.25-26.65Q51.4-26.65 52-25.85 52.6-25.05 52.6-24.1 52.6-23.15 52.18-21.45 51.75-19.75 49.6-14.35L49.6-14.35Q46.95-7.75 46.95-3.55L46.95-3.55Q46.95-0.3 48.75-0.3L48.75-0.3Q50.05-0.3 52.2-1.95L52.2-1.95Q55.5-4.7 57.5-7.4L57.5-7.4Q57.75-7.75 57.98-7.55 58.2-7.35 58.2-7.23 58.2-7.1 58.1-7L58.1-7Q57.15-5.5 55.1-3.4L55.1-3.4Q51.75 0.15 49.7 0.8L49.7 0.8Q48.7 1.15 47.75 1.15L47.75 1.15Q44.45 1.1 44.45-3.6L44.45-3.6Q44.45-6.05 45.05-8.35 45.65-10.65 46.03-11.9 46.4-13.15 47-14.83 47.6-16.5 48-17.4L48-17.4Q49.3-20.65 49.6-21.45 49.9-22.25 49.9-22.83 49.9-23.4 49.6-23.63 49.3-23.85 48.8-23.85 48.3-23.85 47.25-22.95L47.25-22.95Q43.4-19.65 38.58-12.55 33.75-5.45 31.8-1.4L31.8-1.4Q31.4-0.55 31-0.55 30.6-0.55 30.15-1.28 29.7-2 29.7-2.33 29.7-2.65 29.75-2.75L29.75-2.75Q31.05-6.05 31.63-9.8 32.2-13.55 32.2-15.95L32.2-15.95Q32.2-24.4 28.55-24.4L28.55-24.4Q25.15-24.4 16.2-16.2L16.2-16.2Q15.75-14.9 14.25-11.5L14.25-11.5Q12.2-7.05 10.6-4.05ZM2.25 2.7L2.25 2.7Q5.35 2.7 9.85-5.95L9.85-5.95Q12.35-10.75 13.45-13.75L13.45-13.75Q10.8-11.25 7.6-7.63 4.4-4 3.05-2.2L3.05-2.2Q1.3 0.15 1.3 1.43 1.3 2.7 2.25 2.7ZM59.3 0.55L59.3 0.55Q58.5 0.55 57.57 0.08 56.65-0.4 56-1.28 55.35-2.15 55.35-3.15 55.35-4.15 55.8-5.05L55.8-5.05Q56.8-7.15 59.02-9.13 61.25-11.1 63.65-12.5 66.05-13.9 67.45-14.25 68.85-14.6 70.17-14.6 71.5-14.6 72.45-13.93 73.4-13.25 73.4-12.5L73.4-12.5Q73.4-12.25 73.35-12.2 73.3-12.15 73.1-12.25L73.1-12.25Q72.5-13.2 70.62-13.2 68.75-13.2 66.37-11.98 64-10.75 61.9-8.9L61.9-8.9Q60.15-7.25 58.82-5.18 57.5-3.1 57.5-2.15L57.5-2.15Q57.5-0.3 58.55-0.3 59.6-0.3 61.75-2L61.75-2Q65.3-5 66.6-6.4L66.6-6.4Q71.2-11.35 71.55-11.35L71.55-11.35Q72.15-11.35 73-11 73.85-10.65 73.55-10.15L73.55-10.15Q71-6.55 70.55-2.9L70.55-2.9Q70.5-2.45 70.5-1.75 70.5-1.05 70.9-0.6L70.9-0.6Q71.65 0.2 72.95-0.5 74.25-1.2 76.57-3.3 78.9-5.4 80.3-7.4L80.3-7.4Q80.5-7.65 80.75-7.53 81-7.4 81-7.3L81-7.3Q81-6.55 78.62-4.03 76.25-1.5 75-0.6L75-0.6Q72.65 1.15 70.65 1.15L70.65 1.15Q68.75 1.15 68.1-0.75L68.1-0.75Q67.95-1.35 67.95-2.1L67.95-2.1Q67.95-4.35 68.9-6.85L68.9-6.85Q68.7-6.75 67.05-4.85 65.4-2.95 63.22-1.2 61.05 0.55 59.3 0.55ZM93.55-14.2L93.55-14.2Q94.7-14.2 94.7-12.98 94.7-11.75 93.55-9.6 92.4-7.45 91.85-6.1L91.85-6.1Q90.9-3.8 90.9-2.43 90.9-1.05 91.3-0.6L91.3-0.6Q92.05 0.2 93.35-0.53 94.65-1.25 96.97-3.33 99.3-5.4 100.7-7.4L100.7-7.4Q100.9-7.65 101.17-7.53 101.45-7.4 101.45-7.28 101.45-7.15 101.35-7L101.35-7Q100.6-5.65 98.65-3.55 96.7-1.45 94.9-0.18 93.1 1.1 91.35 1.1L91.35 1.1Q89.65 1.05 88.95 0.33 88.25-0.4 88.25-1.5 88.25-2.6 88.45-3.63 88.65-4.65 89.2-6L89.2-6Q90.1-8.15 90.77-9.35 91.45-10.55 91.45-10.93 91.45-11.3 91.05-11.3L91.05-11.3Q90.25-11.3 88-9.35L88-9.35Q86.45-7.9 83.42-3.88 80.4 0.15 80 0.4L80 0.4Q78.2 1.3 77.75 1.3 77.3 1.3 77.3 1.15 77.3 1 77.4 0.73 77.5 0.45 78.37-2 79.25-4.45 80.27-7.38 81.3-10.3 81.52-10.9 81.75-11.5 81.82-11.93 81.9-12.35 82-12.65 82.1-12.95 82.37-13.33 82.65-13.7 83.1-13.73 83.55-13.75 84.25-13.63 84.95-13.5 84.95-13L84.95-13Q84.95-12.65 84.4-11.48 83.85-10.3 81.25-3.4L81.25-3.4Q83.05-5.6 85.8-8.47 88.55-11.35 90.45-12.85L90.45-12.85Q92.35-14.2 93.55-14.2ZM123.59-7Q122.84-5.65 120.89-3.55 118.94-1.45 117.39-0.3L117.39-0.3Q115.39 1.15 113.04 1.15L113.04 1.15Q112.59 1.15 111.87 0.73 111.14 0.3 110.89-0.5 110.64-1.3 110.64-2.05L110.64-2.05Q110.64-4.65 111.64-7.2L111.64-7.2Q111.49-7.1 110.27-5.08 109.04-3.05 107.27-1.25 105.49 0.55 103.69 0.55L103.69 0.55Q102.84 0.55 101.74 0.1L101.74 0.1Q99.74-0.8 99.74-3.2L99.74-3.2Q99.74-6.15 101.77-9.28 103.79-12.4 104.34-12.6L104.34-12.6Q105.09-12.8 105.77-12.8 106.44-12.8 107.14-12.53 107.84-12.25 106.94-11.6L106.94-11.6Q103.49-8.45 102.04-4.6L102.04-4.6Q101.49-3.1 101.49-2.08 101.49-1.05 102.02-0.75 102.54-0.45 103.04-0.45L103.04-0.45Q104.24-0.45 106.32-2.13 108.39-3.8 112.04-9.1L112.04-9.1Q112.54-9.85 113.79-12.03 115.04-14.2 115.29-14.6L115.29-14.6Q116.09-14.6 117.17-14.23 118.24-13.85 117.89-13.25L117.89-13.25Q115.49-9.25 114.52-7.35 113.54-5.45 113.19-2.9L113.19-2.9Q113.14-2.45 113.14-1.75 113.14-1.05 113.54-0.6L113.54-0.6Q114.29 0.2 115.62-0.53 116.94-1.25 119.24-3.33 121.54-5.4 122.94-7.4L122.94-7.4Q123.14-7.65 123.42-7.53 123.69-7.4 123.69-7.28 123.69-7.15 123.59-7L123.59-7ZM133.89-14.55L133.89-14.55Q136.59-14.55 136.59-11.95L136.59-11.95Q136.59-10.6 135.84-9.75L135.84-9.75Q134.59-7.9 131.79-6.53 128.99-5.15 127.04-5L127.04-5Q126.34-4.95 126.29-5.4L126.29-5.4Q126.24-5.6 126.42-5.65 126.59-5.7 126.69-5.7L126.69-5.7Q127.84-5.8 129.64-6.8L129.64-6.8Q132.99-8.6 134.54-10.5L134.54-10.5Q135.19-11.4 135.19-12.23 135.19-13.05 134.39-13.05L134.39-13.05Q133.74-13.05 132.64-12.5L132.64-12.5Q130.29-11.4 127.69-8.68 125.09-5.95 124.29-3.35L124.29-3.35Q124.04-2.55 124.04-1.78 124.04-1 124.69-0.3 125.34 0.4 126.69 0.4L126.69 0.4Q128.19 0.4 130.14-0.4L130.14-0.4Q135.79-2.7 138.84-7.35L138.84-7.35Q139.14-7.75 139.39-7.5L139.39-7.5Q139.59-7.4 139.59-7.25 139.59-7.1 139.44-6.9L139.44-6.9Q137.94-4.4 135.64-2.45L135.64-2.45Q131.19 1.35 126.99 1.35L126.99 1.35Q123.39 1.35 121.94-0.8L121.94-0.8Q121.39-1.65 121.39-2.85 121.39-4.05 122.04-5.7L122.04-5.7Q123.29-8.55 127.39-11.55 131.49-14.55 133.89-14.55ZM143.89 0.3L143.89 0.3Q143.34 0.7 142.29 0.7 141.24 0.7 141.24 0.35L141.24 0.35Q141.24-0.8 149.14-10.43 157.04-20.05 160.34-23.4L160.34-23.4Q156.14-24.1 150.69-24.1L150.69-24.1Q149.99-24.1 149.29-24.1L149.29-24.1Q143.64-23.9 142.59-19.85L142.59-19.85Q142.39-18.95 141.94-19.25L141.94-19.25Q141.69-19.4 141.74-19.75L141.74-19.75Q142.49-23.75 144.44-24.98 146.39-26.2 149.99-26.2L149.99-26.2Q151.19-26.2 156.19-25.78 161.19-25.35 161.99-25.2L161.99-25.2Q162.59-26.3 163.74-26.7L163.74-26.7Q163.99-26.75 164.19-26.75L164.19-26.75Q164.79-26.75 164.79-26.05 164.79-25.35 164.21-24.63 163.64-23.9 162.79-23.5L162.79-23.5Q162.39-23.1 159.06-19.4 155.74-15.7 152.79-12.2L152.79-12.2Q147.59-6.1 143.89 0.3Z" fill="#77d4fc" data-fill-palette-color="primary"></path></g></svg></g></svg></g></svg></g></svg></g><g transform="matrix(1,0,0,1,93.41399639058717,0)"><svg viewBox="0 0 210.66960721882558 110.56520368641708" height="110.56520368641708" width="210.66960721882558"><g><svg xmlns="http://www.w3.org/2000/svg" xmlns:xlink="http://www.w3.org/1999/xlink" version="1.1" x="0" y="0" viewBox="5 26.381999999999998 90.001 47.23499999999999" enable-background="new 0 0 100 100" xml:space="preserve" height="110.56520368641708" width="210.66960721882558" class="icon-icon-0" data-fill-palette-color="accent" id="icon-0"><path fill="none" d="M50.482 28.475c-0.03 0.03-0.071 0.048-0.106 0.072C50.411 28.522 50.452 28.505 50.482 28.475z"></path><path fill="none" d="M50.628 28.259c-0.021 0.052-0.06 0.093-0.093 0.138C50.568 28.352 50.606 28.311 50.628 28.259z"></path><path fill="none" d="M50.553 27.618c0.025 0.037 0.058 0.069 0.075 0.111C50.61 27.688 50.578 27.655 50.553 27.618z"></path><path fill="none" d="M50.266 28.621c-0.082 0.034-0.171 0.053-0.265 0.053C50.095 28.674 50.184 28.655 50.266 28.621z"></path><path fill="none" d="M50.001 28.674c-0.375 0-0.68-0.304-0.68-0.68s0.305-0.68 0.68-0.68c-0.376 0-0.681 0.304-0.681 0.68S49.625 28.674 50.001 28.674z"></path><path fill="none" d="M50.001 27.314c0.094 0 0.183 0.019 0.265 0.053C50.184 27.333 50.095 27.314 50.001 27.314z"></path><path fill="none" d="M50.376 27.442c0.036 0.024 0.076 0.041 0.106 0.071C50.452 27.483 50.412 27.466 50.376 27.442z"></path><path fill="none" d="M54.305 70.684c0.375 0 0.678 0.305 0.68 0.68C54.984 70.988 54.68 70.684 54.305 70.684z"></path><path d="M86.63 69.109c0.108-0.227 0.177-0.478 0.177-0.746V28.107c0-0.953-0.772-1.725-1.727-1.725H14.92c-0.953 0-1.724 0.772-1.724 1.725v40.256c0 0.269 0.066 0.52 0.176 0.746H5v2.783c0 0.953 0.773 1.725 1.726 1.725h86.549c0.953 0 1.726-0.771 1.726-1.725v-2.783H86.63zM50.001 27.314c0.094 0 0.183 0.019 0.265 0.053 0.042 0.018 0.074 0.049 0.11 0.075 0.036 0.024 0.076 0.041 0.106 0.071 0.03 0.03 0.047 0.07 0.071 0.105 0.025 0.037 0.058 0.069 0.075 0.111 0.034 0.081 0.054 0.171 0.054 0.265s-0.02 0.183-0.054 0.265c-0.021 0.052-0.06 0.093-0.093 0.138-0.02 0.025-0.031 0.056-0.053 0.078-0.03 0.03-0.071 0.048-0.106 0.072-0.037 0.025-0.069 0.057-0.11 0.074-0.082 0.034-0.171 0.053-0.265 0.053-0.376 0-0.681-0.304-0.681-0.68S49.625 27.314 50.001 27.314zM16.143 29.708h67.714v36.571H16.143V29.708zM54.305 72.046h-8.608c-0.375 0-0.68-0.305-0.68-0.683 0-0.375 0.305-0.68 0.68-0.68h8.608c0.375 0 0.68 0.305 0.68 0.68C54.984 71.741 54.68 72.046 54.305 72.046z" fill="#77d4fc" data-fill-palette-color="accent"></path><polygon points="25.039,48.313 25.039,49.536 25.039,49.537 44.878,49.537 44.878,49.536 44.878,48.313 44.878,48.312   25.039,48.312 " fill="#77d4fc" data-fill-palette-color="accent"></polygon><rect x="36.633" y="58.613" width="3.488" height="1.225" fill="#77d4fc" data-fill-palette-color="accent"></rect><rect x="46.552" y="48.313" width="3.488" height="1.224" fill="#77d4fc" data-fill-palette-color="accent"></rect><rect x="39.377" y="46.296" width="3.488" height="1.224" fill="#77d4fc" data-fill-palette-color="accent"></rect><rect x="20.692" y="31.829" width="3.489" height="1.224" fill="#77d4fc" data-fill-palette-color="accent"></rect><rect x="20.692" y="42.131" width="3.489" height="1.224" fill="#77d4fc" data-fill-palette-color="accent"></rect><rect x="20.692" y="46.296" width="3.489" height="1.224" fill="#77d4fc" data-fill-palette-color="accent"></rect><rect x="20.692" y="48.313" width="3.489" height="1.224" fill="#77d4fc" data-fill-palette-color="accent"></rect><rect x="20.692" y="44.191" width="5.832" height="1.224" fill="#77d4fc" data-fill-palette-color="accent"></rect><rect x="25.039" y="46.296" width="12.665" height="1.224" fill="#77d4fc" data-fill-palette-color="accent"></rect><rect x="20.692" y="50.373" width="3.489" height="1.223" fill="#77d4fc" data-fill-palette-color="accent"></rect><rect x="20.692" y="54.494" width="3.489" height="1.223" fill="#77d4fc" data-fill-palette-color="accent"></rect><rect x="53.637" y="50.373" width="3.488" height="1.223" fill="#77d4fc" data-fill-palette-color="accent"></rect><rect x="25.039" y="50.373" width="27.761" height="1.223" fill="#77d4fc" data-fill-palette-color="accent"></rect><rect x="20.692" y="52.434" width="27.792" height="1.223" fill="#77d4fc" data-fill-palette-color="accent"></rect><rect x="25.039" y="54.494" width="23.444" height="1.223" fill="#77d4fc" data-fill-palette-color="accent"></rect><rect x="20.692" y="56.555" width="17.012" height="1.223" fill="#77d4fc" data-fill-palette-color="accent"></rect><rect x="20.692" y="58.613" width="14.267" height="1.225" fill="#77d4fc" data-fill-palette-color="accent"></rect><rect x="20.692" y="60.674" width="7.134" height="1.225" fill="#77d4fc" data-fill-palette-color="accent"></rect><rect x="20.692" y="62.736" width="5.832" height="1.223" fill="#77d4fc" data-fill-palette-color="accent"></rect><rect x="20.692" y="33.89" width="8.694" height="1.224" fill="#77d4fc" data-fill-palette-color="accent"></rect><rect x="20.692" y="35.95" width="11.594" height="1.224" fill="#77d4fc" data-fill-palette-color="accent"></rect><rect x="20.692" y="38.01" width="8.694" height="1.224" fill="#77d4fc" data-fill-palette-color="accent"></rect><rect x="20.692" y="40.071" width="8.694" height="1.224" fill="#77d4fc" data-fill-palette-color="accent"></rect><rect x="18.798" y="31.829" width="1.058" height="1.224" fill="#77d4fc" data-fill-palette-color="accent"></rect><rect x="18.798" y="33.89" width="1.058" height="1.224" fill="#77d4fc" data-fill-palette-color="accent"></rect><rect x="18.798" y="35.95" width="1.058" height="1.224" fill="#77d4fc" data-fill-palette-color="accent"></rect><rect x="18.798" y="38.01" width="1.058" height="1.224" fill="#77d4fc" data-fill-palette-color="accent"></rect><rect x="18.798" y="40.071" width="1.058" height="1.224" fill="#77d4fc" data-fill-palette-color="accent"></rect><rect x="18.798" y="42.131" width="1.058" height="1.224" fill="#77d4fc" data-fill-palette-color="accent"></rect><rect x="18.798" y="44.191" width="1.058" height="1.224" fill="#77d4fc" data-fill-palette-color="accent"></rect><rect x="18.798" y="46.252" width="1.058" height="1.224" fill="#77d4fc" data-fill-palette-color="accent"></rect><rect x="18.798" y="48.313" width="1.058" height="1.224" fill="#77d4fc" data-fill-palette-color="accent"></rect><rect x="18.798" y="50.373" width="1.058" height="1.223" fill="#77d4fc" data-fill-palette-color="accent"></rect><rect x="18.798" y="52.434" width="1.058" height="1.223" fill="#77d4fc" data-fill-palette-color="accent"></rect><rect x="18.798" y="54.494" width="1.058" height="1.223" fill="#77d4fc" data-fill-palette-color="accent"></rect><rect x="18.798" y="56.555" width="1.058" height="1.223" fill="#77d4fc" data-fill-palette-color="accent"></rect><rect x="18.798" y="58.613" width="1.058" height="1.225" fill="#77d4fc" data-fill-palette-color="accent"></rect><rect x="18.798" y="60.674" width="1.058" height="1.225" fill="#77d4fc" data-fill-palette-color="accent"></rect><rect x="18.798" y="62.736" width="1.058" height="1.223" fill="#77d4fc" data-fill-palette-color="accent"></rect></svg></g></svg></g><g></g></svg></g></svg></g></svg></g><defs></defs></svg><rect width="395.52" height="247.2" fill="none" stroke="none" visibility="hidden"></rect></g></svg></g></svg>